<?xml version="1.0" encoding="UTF-8" standalone="no"?>
<!-- Created with Inkscape (http://www.inkscape.org/) -->

<svg
   width="183.90936mm"
   height="56.065838mm"
   viewBox="0 0 183.90936 56.065838"
   version="1.1"
   id="svg1"
   xmlns="http://www.w3.org/2000/svg"
   xmlns:svg="http://www.w3.org/2000/svg">
  <defs
     id="defs1" />
  <g
     id="layer1"
     transform="translate(-13.229166,-120.38572)">
    <path
       style="fill:#000000;stroke-width:0.264583"
       d="m 88.744077,175.50925 -0.902411,-0.90241 v -6.93208 -6.93209 l 0.899583,-0.89958 0.899583,-0.89958 h 11.539448 11.53945 l -0.0698,8.6651 -0.0698,8.66511 -11.46686,0.069 -11.466861,0.069 z m 21.719463,-7.83449 v -6.48229 l -9.89084,-0.0694 c -7.080392,-0.0497 -9.993637,0.0159 -10.252606,0.23083 -0.494149,0.41011 -0.532346,12.12986 -0.04113,12.62107 0.242247,0.24225 2.748563,0.30369 10.252596,0.25135 l 9.93198,-0.0693 z m 4.10104,7.69568 v -1.0811 h 2.46063 c 1.56104,0 2.5767,-0.11607 2.77812,-0.3175 0.22822,-0.22821 0.3175,-1.99907 0.3175,-6.29708 0,-4.29801 -0.0893,-6.06887 -0.3175,-6.29709 -0.2003,-0.2003 -1.20394,-0.3175 -2.71897,-0.3175 h -2.40147 l 0.10308,-1.08094 0.10309,-1.08095 2.87511,0.0888 c 2.73378,0.0844 2.91115,0.1248 3.60808,0.82194 l 0.73296,0.73317 0.0784,6.98802 0.0784,6.98801 -0.78368,0.87777 -0.78369,0.87777 -3.06501,0.0889 -3.06501,0.0889 z m 59.79583,-30.84672 v -14.4198 h 2.10756 2.10755 l 0.17447,1.31524 0.17447,1.31523 1.07042,-0.91624 c 1.58201,-1.35414 3.60485,-2.02624 6.13949,-2.03987 5.12046,-0.0275 9.05043,2.79842 10.49204,7.5446 0.83558,2.75095 0.63343,6.30913 -0.49511,8.71513 -1.10882,2.36395 -2.89241,4.22952 -5.06808,5.30103 -1.64445,0.8099 -1.90351,0.85759 -4.65799,0.85759 -2.586,0 -3.08168,-0.0776 -4.3719,-0.68454 -0.80036,-0.37649 -1.75286,-0.99952 -2.11667,-1.38449 -0.3638,-0.38497 -0.75075,-0.70201 -0.85989,-0.70452 -0.10914,-0.003 -0.19844,2.13855 -0.19844,4.75793 v 4.7625 h -2.24896 -2.24896 z m 13.6272,3.39825 c 1.67462,-0.5706 3.35567,-2.25164 3.92627,-3.92627 0.49496,-1.45263 0.57037,-4.01256 0.16155,-5.48457 -0.75824,-2.73018 -3.52963,-4.70744 -6.58381,-4.69723 -2.9747,0.01 -5.38462,1.66302 -6.25806,4.29269 -0.56282,1.69449 -0.41819,5.20399 0.26991,6.54942 1.59542,3.11952 5.03173,4.44232 8.48414,3.26596 z m -165.941421,4.04042 c -1.300501,-0.42351 -2.705415,-1.25487 -3.379687,-1.99993 -0.644803,-0.7125 -0.939419,-0.46331 -0.939419,0.79458 v 1.04272 h -2.248958 -2.248958 v -15.08125 -15.08125 h 2.38125 2.38125 v 5.42396 c 0,2.98317 0.0585,5.42395 0.130003,5.42395 0.0715,0 0.671848,-0.4136 1.334108,-0.91911 1.551599,-1.18437 3.418655,-1.72672 5.944222,-1.72672 4.685009,0 7.973295,2.01819 9.894718,6.07288 0.781981,1.65019 0.820907,1.88916 0.820907,5.03962 0,3.16872 -0.03531,3.38183 -0.842693,5.08617 -1.12105,2.36648 -2.906276,4.23235 -5.067332,5.29623 -1.555313,0.76568 -2.004078,0.85969 -4.393406,0.92037 -1.702623,0.0432 -3.059112,-0.062 -3.766005,-0.29222 z m 5.682742,-4.23294 c 1.351701,-0.70468 2.876243,-2.43642 3.338034,-3.7917 0.848878,-2.49133 0.401076,-5.75454 -1.050912,-7.65819 -2.159773,-2.83161 -7.132431,-3.31091 -9.92977,-0.9571 -1.760162,1.48107 -2.611411,4.42773 -2.102223,7.27696 0.430546,2.40919 1.555684,4.04778 3.473071,5.05798 1.288392,0.67881 1.624992,0.74194 3.413702,0.6403 1.156671,-0.0657 2.348815,-0.30275 2.858098,-0.56825 z m 30.750399,4.19166 c -6.030349,-1.68851 -9.42162,-7.78687 -7.797864,-14.02253 1.802736,-6.923 10.027317,-10.25961 16.943528,-6.87378 6.223179,3.04655 8.137921,11.08189 3.98499,16.72325 -1.200039,1.63014 -3.132077,3.08364 -5.199568,3.91171 -1.650624,0.66112 -5.992405,0.80419 -7.931086,0.26135 z m 5.798899,-3.97771 c 4.647316,-1.38011 6.315271,-7.87722 3.012757,-11.73547 -2.825403,-3.30085 -8.260188,-3.20178 -10.853163,0.19784 -2.123456,2.78404 -1.880891,7.2775 0.528709,9.79417 1.925312,2.01086 4.413438,2.60415 7.311697,1.74346 z m 16.948853,3.99086 c -1.810723,-0.40526 -5.027083,-1.6579 -5.027083,-1.95784 0,-0.097 0.33133,-0.96165 0.736291,-1.92151 l 0.736287,-1.74521 1.564635,0.79117 c 4.475197,2.26292 10.72112,1.59503 10.72112,-1.14643 0,-1.74169 -0.62893,-2.12247 -4.963797,-3.00534 -6.385039,-1.30041 -8.265369,-2.69972 -8.265369,-6.15097 0,-2.81648 1.177345,-4.61112 3.906459,-5.95466 1.747729,-0.8604 1.819611,-0.87184 5.480685,-0.87184 3.190406,0 3.978264,0.088 5.62796,0.62849 1.060627,0.34751 1.918229,0.78057 1.918229,0.96865 0,0.5033 -1.103842,3.29765 -1.30266,3.29765 -0.09399,0 -0.881137,-0.261 -1.749219,-0.58001 -2.231403,-0.82001 -6.449668,-0.85686 -7.796038,-0.0681 -1.834258,1.07459 -2.012045,2.91685 -0.373821,3.87362 0.447638,0.26143 2.233326,0.76442 3.968189,1.11776 5.613561,1.14329 7.378776,2.16986 8.056046,4.68506 0.881121,3.27222 -1.227661,6.66112 -4.849069,7.79265 -1.918711,0.59951 -6.24442,0.72681 -8.388845,0.24686 z m 23.749518,-0.11912 c -3.09372,-0.98898 -5.268967,-2.87078 -6.578919,-5.69139 -3.349128,-7.21139 0.796771,-15.19275 8.456109,-16.27904 3.06992,-0.43539 6.48658,0.27619 8.48637,1.76745 1.0976,0.81848 2.37626,2.21053 2.38163,2.59281 0.002,0.14552 -0.71448,0.77534 -1.59229,1.39961 l -1.596,1.13502 -1.28043,-1.15122 c -1.42413,-1.28042 -2.7413,-1.78157 -4.67231,-1.7777 -1.53054,0.003 -3.61031,0.90377 -4.65147,2.01447 -2.02505,2.1603 -2.52742,5.88374 -1.16858,8.66112 2.0611,4.21273 7.92092,5.10293 10.94188,1.66224 l 0.8077,-0.91992 1.73717,1.20932 1.73717,1.20932 -0.77675,0.98073 c -1.12033,1.41454 -3.32679,2.82742 -5.14628,3.29538 -2.11133,0.54302 -5.19518,0.49593 -7.085,-0.1082 z m 22.41024,-0.006 c -9.61685,-3.14826 -10.50261,-16.65523 -1.37197,-20.9211 5.61151,-2.62172 12.89449,-0.54383 15.61528,4.45516 3.25311,5.97704 1.04229,12.98125 -5.00371,15.85248 -1.87593,0.89087 -2.24715,0.97151 -4.83697,1.05069 -2.2472,0.0687 -3.12283,-0.0183 -4.40263,-0.43723 z m 6.11357,-3.83793 c 4.76176,-1.42063 6.44332,-7.96717 3.03969,-11.8339 -1.51365,-1.71959 -3.28651,-2.42665 -5.693,-2.27051 -2.15545,0.13985 -3.20697,0.61236 -4.6331,2.08189 -2.86194,2.94903 -2.35842,8.80648 0.952,11.07482 1.93903,1.32865 4.016,1.63938 6.33441,0.9477 z m 20.69815,3.84717 c -3.23399,-1.03405 -5.45796,-2.98198 -6.91441,-6.05622 -0.78899,-1.66539 -0.83728,-1.94278 -0.83728,-4.81002 0,-2.92148 0.0358,-3.11585 0.89726,-4.8786 1.71495,-3.509 4.8238,-5.72213 8.72642,-6.21216 6.55884,-0.82356 12.10468,2.74689 13.41823,8.63875 1.33184,5.9739 -2.26153,11.88268 -8.1856,13.46002 -1.91691,0.5104 -5.27446,0.44339 -7.10462,-0.14178 z m 6.08961,-3.88884 c 2.91803,-0.94242 4.67305,-3.51997 4.65432,-6.83566 -0.0246,-4.34462 -2.83235,-7.2693 -6.98624,-7.27709 -4.16913,-0.008 -7.00798,2.95553 -6.9623,7.26764 0.0108,1.01865 0.15963,2.20927 0.33075,2.64584 1.43118,3.65127 5.19723,5.41561 8.96347,4.19926 z m -119.277754,-6.9774 v -10.84792 h 2.38125 2.38125 v 10.84792 10.84792 h -2.38125 -2.38125 z m 0.629881,-15.32191 c -1.519431,-0.92651 -1.733757,-3.08122 -0.435613,-4.37936 1.337186,-1.33719 3.898725,-1.08374 4.852305,0.48011 0.79466,1.30323 0.667348,2.44766 -0.389906,3.50491 -0.747861,0.74786 -1.0937,0.89942 -2.050521,0.8986 -0.663964,-5.3e-4 -1.500142,-0.21393 -1.976265,-0.50426 z"
       id="path1" />
  </g>
</svg>
