<?xml version="1.0" encoding="UTF-8" standalone="no"?>
<!-- Created with Inkscape (http://www.inkscape.org/) -->

<svg
   version="1.1"
   id="svg1"
   width="640"
   height="230"
   viewBox="0 0 640 230"
   xmlns="http://www.w3.org/2000/svg"
   xmlns:svg="http://www.w3.org/2000/svg">
  <defs
     id="defs1" />
  <g
     id="g1">
    <path
       style="fill:#000000;stroke-width:0.720024"
       d="m 307.07692,198.33312 c -0.19202,-0.17893 -0.0955,-0.40062 0.40571,-0.93189 0.27798,-0.29463 0.93384,-1.06234 1.4575,-1.70603 l 0.95207,-1.17034 h 3.62435 3.62437 l 0.73291,0.75394 c 1.06998,1.10066 2.51659,3.03337 2.28322,3.05044 -0.97482,0.0713 -13.00392,0.0749 -13.08013,0.004 z m -29.03419,-7.53755 c -0.52392,-0.0439 -1.29027,-0.22589 -1.70301,-0.40447 -0.41274,-0.17858 -0.86339,-0.32469 -1.00146,-0.32469 -0.49764,0 -2.8122,-2.36505 -3.38153,-3.4553 l -0.58205,-1.11461 v -17.61087 -17.61088 l 0.69577,-1.17554 c 0.94967,-1.60454 2.00577,-2.5671 3.64051,-3.31808 l 1.37919,-0.6336 31.59406,-0.0582 c 28.54875,-0.0525 31.63038,-0.0242 31.97085,0.29458 0.33865,0.317 0.37644,2.60268 0.37317,22.57331 -0.002,12.86997 -0.0943,22.35476 -0.21919,22.53942 -0.18493,0.27354 -4.58949,0.32307 -31.01463,0.34874 -16.93951,0.0164 -31.22777,-0.006 -31.75168,-0.0499 z m 56.6104,-5.91211 c 0.23994,-0.39322 0.32081,-4.05149 0.3743,-16.93396 0.0676,-16.27625 0.0636,-16.4367 -0.41675,-16.88638 -0.48232,-0.45149 -0.63735,-0.45399 -28.10178,-0.45399 h -27.6168 l -0.84144,0.78766 -0.84144,0.78766 v 15.49676 c 0,16.8999 -0.0523,16.23988 1.36266,17.22778 0.66018,0.46095 0.71928,0.46194 28.21838,0.46899 l 27.55681,0.007 z m 12.39188,5.94018 c -0.21269,-0.0897 -0.29767,-0.84546 -0.29767,-2.6468 0,-2.09334 0.0639,-2.54414 0.37668,-2.65649 0.20718,-0.0744 3.14553,-0.13531 6.52968,-0.13531 5.38786,0 6.24186,-0.0478 6.86792,-0.3841 1.51086,-0.8117 1.46694,-0.29542 1.46694,-17.24219 0,-13.91323 -0.0375,-15.43548 -0.39258,-15.94278 -0.79987,-1.14274 -1.22586,-1.20684 -8.02055,-1.20684 -5.10639,0 -6.34573,-0.0589 -6.57042,-0.31235 -0.37555,-0.42358 -0.13104,-4.8336 0.28159,-5.07894 0.16183,-0.0962 3.32121,-0.17648 7.02085,-0.17836 6.26526,-0.003 6.82879,0.0294 8.21599,0.47538 0.81915,0.26333 1.52507,0.56427 1.56872,0.66877 0.0437,0.10449 0.21756,0.18998 0.38642,0.18998 0.48532,0 2.24415,1.91579 2.82025,3.07193 0.52395,1.0515 0.52431,1.0624 0.59062,18.1057 0.0727,18.66313 0.10399,18.1854 -1.32153,20.13815 -0.70985,0.97239 -2.28995,2.06939 -3.86492,2.68323 -0.9483,0.3696 -1.894,0.42683 -8.21598,0.49716 -3.92938,0.0437 -7.27828,0.0229 -7.44201,-0.0461 z m 167.71473,-46.00798 c -0.21614,-0.32736 -0.34436,-45.353436 -0.17697,-62.142142 l 0.13392,-13.43108 h 5.88699 5.887 l 0.14479,0.50157 c 0.0797,0.27587 0.21575,1.63201 0.30247,3.01364 0.0866,1.38163 0.27517,2.65818 0.41879,2.83678 0.21602,0.26862 0.54914,0.0717 1.92815,-1.13961 0.91686,-0.80538 2.14925,-1.77802 2.73865,-2.16142 1.19167,-0.77517 4.47103,-2.38143 4.86632,-2.38357 0.13959,-6.9e-4 0.55301,-0.14747 0.91875,-0.32605 0.36571,-0.17857 1.06229,-0.391784 1.54793,-0.473812 0.48564,-0.08202 1.04424,-0.226615 1.24135,-0.321308 0.19709,-0.09469 1.93583,-0.35056 3.86385,-0.568592 3.33912,-0.377603 3.67516,-0.378132 7.07971,-0.01108 1.96582,0.21193 3.87069,0.470492 4.23306,0.574583 4.43311,1.273489 4.78482,1.404619 7.95888,2.967459 1.7124,0.84316 4.28167,2.66979 5.99626,4.26307 4.18706,3.8908 6.72602,8.37178 8.41526,14.85184 0.6391,2.45168 0.63566,11.391902 -0.005,13.821182 -0.95193,3.60775 -1.70722,5.57964 -3.09917,8.09132 -1.4263,2.5736 -4.10285,5.8571 -6.19625,7.60131 -1.81032,1.50836 -4.5615,3.34533 -5.36996,3.58552 -0.27055,0.0804 -0.49191,0.23971 -0.49191,0.35405 0,0.11435 -0.10548,0.2079 -0.23435,0.2079 -0.12891,0 -0.86081,0.28406 -1.62649,0.63126 -1.37254,0.62237 -3.20262,1.19917 -6.23608,1.9655 -2.3151,0.58485 -10.82306,0.58229 -13.33607,-0.004 -1.94188,-0.45306 -4.50194,-1.23291 -4.88196,-1.48716 -0.13099,-0.0876 -0.50605,-0.23437 -0.83351,-0.32609 -0.32744,-0.0917 -1.05618,-0.45511 -1.6194,-0.80751 -0.56323,-0.35241 -1.08387,-0.64075 -1.15696,-0.64075 -0.26221,0 -3.14785,-2.25049 -3.86227,-3.01217 -0.40111,-0.42764 -0.94688,-0.77751 -1.21285,-0.77751 -0.48017,0 -0.48356,0.0867 -0.48356,12.34834 0,9.72895 -0.0638,12.37122 -0.30022,12.45619 -0.66395,0.2385 -12.27885,0.18469 -12.43884,-0.0576 z M 550.4227,116.7175 c 4.22355,-0.87003 8.40073,-3.30773 10.84303,-6.32772 1.42231,-1.75875 3.38356,-5.38301 3.38356,-6.2526 0,-0.20409 0.11926,-0.57965 0.265,-0.83458 0.44439,-0.77728 0.70789,-5.197666 0.46862,-7.861742 -0.58964,-6.56544 -4.75794,-12.59543 -10.37846,-15.01378 -0.6549,-0.28178 -1.36821,-0.60133 -1.58515,-0.71011 -0.21695,-0.10878 -1.30325,-0.40344 -2.41398,-0.65478 -2.17878,-0.49304 -7.01587,-0.62354 -8.86066,-0.23906 -2.01341,0.41962 -3.08637,0.70396 -3.32464,0.88105 -0.13614,0.10118 -0.49815,0.25599 -0.80447,0.34402 -2.08597,0.59941 -6.11577,3.72317 -7.62861,5.91342 -1.43303,2.07472 -1.79907,2.83561 -2.68092,5.57307 -0.57019,1.76993 -0.8643,7.803646 -0.48901,10.031502 0.7113,4.22237 2.23207,7.3793 4.91726,10.20757 0.6223,0.65545 3.35199,2.72193 3.59551,2.72193 0.10212,0 0.35482,0.13285 0.5616,0.29521 0.59139,0.46438 3.79333,1.632 5.49607,2.00421 2.28349,0.49915 5.99743,0.46578 8.63525,-0.0776 z M 91.813947,127.54024 c -2.76834,-0.29427 -4.49565,-0.63596 -5.78308,-1.14398 -0.43013,-0.16973 -0.91881,-0.3086 -1.08594,-0.3086 -0.16714,0 -1.3208,-0.48173 -2.56369,-1.07053 -2.436725,-1.15433 -5.695815,-3.34832 -6.647645,-4.47512 -0.38207,-0.45231 -0.69358,-0.63487 -0.88464,-0.51843 -0.38017,0.2317 -0.77675,2.19775 -0.77675,3.85077 0,0.71092 -0.10452,1.54991 -0.23225,1.86442 l -0.23225,0.57181 h -5.58281 c -3.07054,0 -5.75232,-0.0609 -5.9595,-0.13531 -0.34154,-0.12268 -0.37669,-3.82546 -0.37669,-39.673202 V 46.964182 l 6.45005,-0.0627 c 3.54754,-0.03448 6.49457,-0.0209 6.54898,0.03016 0.0544,0.05106 0.0989,5.226648 0.0989,11.501235 0,6.274599 0.07,12.627891 0.15566,14.118421 0.14609,2.54333 0.18595,2.71007 0.64771,2.71007 0.27061,0 0.76318,-0.28446 1.09457,-0.63214 0.75086,-0.7877 3.18975,-2.52278 4.431745,-3.15283 0.51355,-0.26051 1.09447,-0.56401 1.29093,-0.67444 0.34057,-0.19142 0.8205,-0.3824 2.97681,-1.18453 3.44502,-1.281519 9.57976,-1.812242 14.654883,-1.267802 8.06569,0.865259 15.32884,4.655082 19.88037,10.373342 1.73797,2.1835 1.77277,2.23647 2.925,4.45215 2.10846,4.05448 2.95988,6.90784 3.41321,11.43865 0.34643,3.462466 0.0364,7.978672 -0.74641,10.871392 -0.47908,1.77042 -0.57933,2.05775 -1.51036,4.32918 -0.55665,1.35808 -2.3502,4.7198 -2.7595,5.1723 -0.14394,0.15912 -0.65449,0.79088 -1.13458,1.40392 -3.78305,4.83072 -8.59632,8.11562 -14.48036,9.88241 -2.19819,0.66004 -4.75908,1.13314 -7.451353,1.37656 -2.85081,0.25774 -2.91964,0.25656 -6.36101,-0.10926 z m 6.49244,-10.80359 c 2.577853,-0.69748 3.502893,-1.05908 5.207043,-2.03547 3.29955,-1.89046 5.67962,-4.2832 7.22998,-7.26848 1.8462,-3.55493 2.13509,-4.84633 2.13509,-9.544722 0,-3.85754 -0.19026,-5.02263 -1.28003,-7.8386 -1.56566,-4.04567 -5.15928,-7.69068 -9.52582,-9.66204 -1.79396,-0.80992 -2.588803,-1.05762 -5.019533,-1.56421 -1.8456,-0.38465 -6.44671,-0.25329 -8.65972,0.24724 -1.13122,0.25585 -2.16394,0.54452 -2.29492,0.64148 -0.13098,0.097 -0.49622,0.25053 -0.81166,0.34126 -1.1491,0.33053 -3.98607,2.13745 -5.380085,3.42667 -4.24642,3.92722 -5.88664,8.59418 -5.49471,15.634266 0.14977,2.690416 0.26122,3.416056 0.85587,5.573056 0.77948,2.82741 3.25623,6.52815 5.653205,8.44697 2.17109,1.73798 4.00023,2.63218 7.32068,3.5788 2.12479,0.60575 7.86355,0.61931 10.06461,0.0238 z m 96.385853,10.69436 c -1.30979,-0.0993 -2.68311,-0.29166 -3.05184,-0.42753 -0.36871,-0.13588 -0.93564,-0.24705 -1.25981,-0.24705 -1.48533,0 -9.14794,-2.89621 -10.34454,-3.90988 -0.21141,-0.17911 -0.46446,-0.32565 -0.56234,-0.32565 -0.36611,0 -3.17366,-2.12871 -4.67715,-3.54626 -0.85721,-0.80822 -2.11456,-2.1717 -2.79413,-3.02995 -0.67955,-0.85825 -1.31867,-1.66077 -1.42025,-1.78338 -0.20143,-0.24311 -2.65312,-4.85086 -2.96533,-5.57306 -0.39476,-0.91318 -0.92384,-2.73704 -1.38447,-4.77262 -0.62578,-2.76536 -0.68052,-9.513952 -0.0979,-12.058022 0.90019,-3.93023 2.40099,-7.53164 4.14895,-9.95608 0.39237,-0.54421 0.71338,-1.0764 0.71338,-1.18265 0,-0.10624 0.0809,-0.2266 0.1798,-0.26747 0.0989,-0.0409 0.73232,-0.72934 1.40764,-1.52995 2.65402,-3.14639 7.40137,-6.51067 11.27235,-7.98832 0.72038,-0.27498 1.52413,-0.58665 1.78608,-0.69258 1.23222,-0.49829 3.4097,-1.064672 5.9536,-1.548595 5.69214,-1.082797 13.16133,-0.668433 18.45618,1.023885 5.76188,1.84159 11.07143,5.20499 14.5268,9.20219 3.48488,4.03133 5.57099,8.11511 6.65652,13.03081 0.68867,3.11861 0.68843,8.747012 -5.2e-4,11.835302 -0.26858,1.20395 -0.59008,2.36696 -0.71443,2.58447 -0.12436,0.21751 -0.22974,0.57762 -0.23419,0.80024 -0.004,0.22263 -0.21513,0.80603 -0.46821,1.29646 -0.25306,0.49043 -0.46376,1.00297 -0.4682,1.13896 -0.0207,0.63129 -2.57051,4.68021 -4.12613,6.55187 -2.12374,2.55514 -6.24708,5.91776 -8.97989,7.32314 -3.1007,1.59457 -6.96713,2.94305 -10.59741,3.69602 -2.0185,0.41867 -7.69277,0.60291 -10.95464,0.3557 z m 7.91697,-10.69486 c 4.91243,-0.90636 8.91967,-3.22693 11.76039,-6.81037 1.05644,-1.33266 2.82727,-4.44497 2.82727,-4.96907 0,-0.15161 0.10243,-0.44985 0.22753,-0.66274 0.47899,-0.81492 0.96319,-4.1031 0.96299,-6.539702 -4.1e-4,-5.6509 -1.97524,-10.32007 -5.9156,-13.9867 -1.5507,-1.44297 -4.52188,-3.35398 -5.77511,-3.71446 -0.31543,-0.0907 -0.68068,-0.24429 -0.81166,-0.34126 -0.13097,-0.097 -1.16369,-0.38563 -2.29491,-0.64148 -2.55098,-0.57696 -8.29339,-0.64947 -9.85044,-0.12437 -0.52392,0.17668 -1.09243,0.32275 -1.26332,0.32459 -0.17091,0.002 -0.81391,0.20812 -1.42886,0.45839 -4.74596,1.9314 -8.05816,4.77161 -10.06717,8.63259 -1.7967,3.45294 -2.11346,4.86399 -2.11346,9.41495 0,4.574842 0.29978,5.899322 2.13509,9.433262 3.80929,7.33494 12.56416,11.19485 21.60726,9.52637 z m 123.41957,10.70214 c -1.11331,-0.0922 -2.56005,-0.29359 -3.21495,-0.44762 -3.04345,-0.7158 -4.78171,-1.19492 -4.98911,-1.37517 -0.12443,-0.10813 -0.39234,-0.19808 -0.59536,-0.19987 -0.55607,-0.005 -4.31271,-1.82962 -6.26576,-3.04345 -0.94819,-0.58931 -2.64897,-1.92547 -3.7795,-2.96925 -1.945,-1.79574 -4.49344,-4.64907 -4.49344,-5.03099 0,-0.0965 -0.14858,-0.3339 -0.33018,-0.52746 -1.0396,-1.10817 -3.08611,-5.8598 -3.8,-8.82299 -0.53046,-2.20183 -0.8717,-5.00507 -0.86588,-7.113232 0.005,-2.05473 0.53907,-6.62348 0.90388,-7.74218 0.13437,-0.41204 0.48237,-1.50152 0.77335,-2.42108 0.46615,-1.47315 2.38178,-5.52356 2.89933,-6.13036 0.10457,-0.12261 0.86768,-1.07601 1.69579,-2.11866 1.76769,-2.22566 4.74248,-4.88833 7.21765,-6.46038 0.96824,-0.61495 1.82919,-1.11809 1.9132,-1.11809 0.084,0 0.32195,-0.13364 0.52874,-0.29698 0.20677,-0.16334 0.96537,-0.51982 1.68575,-0.79217 0.72039,-0.27236 1.52413,-0.57952 1.78608,-0.6826 3.48636,-1.371723 9.99096,-2.396832 13.81976,-2.177957 3.23229,0.184775 6.43756,0.567895 7.93605,0.948591 2.48354,0.630956 3.9606,1.089956 4.43351,1.377726 0.25836,0.15722 0.60356,0.28585 0.76711,0.28585 0.52216,0 3.90397,1.98381 5.89083,3.45561 2.19603,1.62675 2.47231,1.89093 4.15009,3.96837 1.27692,1.58107 1.54718,2.50726 0.80805,2.76925 -0.22921,0.0812 -0.54321,0.25365 -0.69778,0.38312 -0.15456,0.12946 -0.8325,0.5865 -1.50651,1.01562 -1.38472,0.88162 -5.11614,3.37788 -5.82198,3.89483 -0.70378,0.51544 -0.97278,0.42582 -1.82113,-0.60672 -2.1344,-2.59781 -4.565,-4.30486 -8.19203,-5.75336 -2.58775,-1.03346 -8.71491,-1.34305 -11.43092,-0.57758 -6.30317,1.77648 -10.42591,5.12035 -12.82149,10.39927 -0.66207,1.45891 -1.309,3.89546 -1.60523,6.04567 -0.25472,1.84905 -0.23972,2.509396 0.10892,4.792822 0.47009,3.07896 0.92766,4.47858 2.33086,7.12933 2.01317,3.80306 6.143,7.08438 10.67715,8.48345 3.99704,1.23333 9.283,1.22391 13.01886,-0.0232 2.90304,-0.9691 5.7023,-2.94011 7.74362,-5.45239 0.65692,-0.80848 1.29784,-1.4427 1.42429,-1.40938 0.44243,0.11659 8.41539,5.25869 9.05062,5.83714 0.42357,0.38568 0.26058,0.75445 -0.99307,2.24672 -3.73698,4.4483 -8.86763,7.70093 -14.52679,9.20942 -3.67396,0.97931 -9.40538,1.41515 -13.81238,1.05033 z m 62.75101,-0.006 c -5.56629,-0.61326 -11.30686,-2.77074 -15.95566,-5.99661 -1.87839,-1.30344 -4.24743,-3.55339 -5.78158,-5.49095 -0.67956,-0.85825 -1.34671,-1.68378 -1.48254,-1.83449 -0.3439,-0.38157 -2.487,-4.43932 -2.91641,-5.52195 -1.44812,-3.65101 -1.91714,-6.71306 -1.77555,-11.591962 0.12001,-4.13491 0.33477,-5.68007 1.12296,-8.0791 1.86138,-5.66566 4.81903,-9.85099 9.88054,-13.98185 1.97182,-1.60926 8.38384,-5.02094 9.44513,-5.02551 0.17532,-6.9e-4 0.60472,-0.14102 0.95421,-0.31171 0.3495,-0.17068 1.09965,-0.382348 1.66701,-0.47036 0.56737,-0.08801 1.19233,-0.238249 1.38879,-0.333855 0.19648,-0.09561 2.13625,-0.351834 4.31062,-0.569385 3.78822,-0.379024 4.11658,-0.378962 7.85876,0.0014 2.14795,0.218331 4.06611,0.474553 4.26258,0.569386 0.19647,0.09483 0.82143,0.244427 1.38879,0.33244 0.56738,0.08801 1.31752,0.299684 1.66702,0.470364 0.34949,0.17069 0.76575,0.31095 0.92502,0.31171 0.57094,0.003 4.8354,1.90964 6.63736,2.96803 3.79545,2.22924 6.59949,4.80541 9.02433,8.29093 3.41115,4.90328 5.0182,9.54108 5.2913,15.27019 0.19136,4.014452 -0.64754,9.134472 -1.95411,11.926342 -2.92018,6.23989 -5.6936,9.73908 -10.22576,12.90169 -1.67779,1.17078 -5.23658,3.25897 -5.55853,3.26157 -0.0936,6.9e-4 -0.45774,0.14181 -0.80922,0.31347 -1.07636,0.52565 -4.721,1.63995 -6.98156,2.13451 -2.41307,0.52791 -9.39572,0.78486 -12.3835,0.45568 z m 8.61521,-10.69332 c 2.57139,-0.47465 5.20246,-1.43398 7.22138,-2.633 1.28844,-0.76521 5.23918,-4.33492 5.23918,-4.73391 0,-0.11226 0.30677,-0.63549 0.68173,-1.16271 1.6204,-2.27842 2.89042,-6.85467 2.89042,-10.414982 0,-3.54188 -1.23006,-7.89504 -2.89001,-10.22769 -0.37518,-0.52723 -0.68311,-1.02881 -0.68426,-1.11461 -0.003,-0.24402 -2.15664,-2.53559 -3.21283,-3.4191 -2.09452,-1.75207 -5.02762,-3.16943 -8.09691,-3.91263 -3.22226,-0.78025 -9.85908,-0.46488 -12.24003,0.58161 -3.55849,1.56405 -6.55747,3.47157 -7.46735,4.74963 -0.31771,0.44629 -0.55171,0.7226 -1.59609,1.88476 -0.41177,0.4582 -1.67983,2.7485 -2.0558,3.71308 -0.95789,2.45752 -1.28864,4.39688 -1.29171,7.57407 -0.004,4.021772 0.44536,6.142042 1.96895,9.292882 1.40195,2.89928 4.59805,6.25421 7.32173,7.68559 2.40882,1.26592 4.59673,1.96013 7.62062,2.41798 1.55063,0.23479 4.47146,0.11027 6.59098,-0.28097 z m 66.87651,10.69403 c -5.13987,-0.48267 -10.74113,-2.37781 -15.44329,-5.22509 -1.18356,-0.71668 -5.53425,-4.56413 -6.54593,-5.78875 -1.51618,-1.83537 -3.20817,-4.6564 -4.56302,-7.60795 -0.26491,-0.57713 -1.04396,-3.03312 -1.41425,-4.45845 -0.5188,-1.99706 -0.77086,-6.642502 -0.51823,-9.550792 0.262,-3.01626 1.03574,-6.25756 1.92406,-8.06008 0.12083,-0.24521 0.4443,-0.94742 0.71881,-1.56045 0.61784,-1.37976 1.07325,-2.17846 1.9448,-3.41075 0.3729,-0.52723 0.67798,-1.01771 0.67798,-1.08996 0,-0.21639 2.47201,-3.006 3.59672,-4.05882 2.49515,-2.33566 6.1323,-4.66629 9.02492,-5.78304 0.72039,-0.27812 1.52413,-0.58999 1.78608,-0.69307 1.09351,-0.43024 2.68117,-0.88891 3.57217,-1.031975 0.52392,-0.08413 1.11332,-0.22899 1.30979,-0.321921 0.19647,-0.09293 2.09879,-0.345982 4.22737,-0.562329 3.66869,-0.372893 4.07039,-0.373618 7.71709,-0.01393 2.11582,0.208676 4.01785,0.463281 4.22675,0.565784 0.20891,0.102509 0.86206,0.259523 1.45147,0.348929 0.5894,0.08941 1.17881,0.239942 1.30979,0.334532 0.13098,0.0946 0.6097,0.24646 1.06383,0.33752 0.45413,0.091 0.98995,0.24681 1.19072,0.34614 0.34345,0.16991 2.07828,0.89789 2.86556,1.20246 0.19645,0.076 0.57372,0.25966 0.83834,0.40811 0.26463,0.14845 1.01478,0.56122 1.667,0.91725 1.66426,0.90847 4.76841,3.21448 6.22734,4.62615 5.43774,5.26158 8.25475,11.72292 8.5744,19.66704 0.29962,7.445652 -2.41898,14.586922 -7.75066,20.359662 -4.541,4.91663 -10.62887,8.16106 -18.28522,9.74477 -2.00112,0.41393 -8.59674,0.62176 -11.39439,0.35903 z m 8.23229,-10.71673 c 3.92916,-0.68247 7.76632,-2.58016 10.23203,-5.06032 1.89917,-1.91033 2.13631,-2.21827 3.2204,-4.18205 2.00739,-3.63632 2.79554,-7.885916 2.26151,-12.193942 -0.17173,-1.38542 -0.45919,-2.85721 -0.63877,-3.27065 -0.1796,-0.41345 -0.32654,-0.88775 -0.32654,-1.05399 0,-0.56198 -1.71479,-3.7354 -2.6918,-4.98152 -2.25149,-2.87162 -5.41775,-5.05975 -9.01205,-6.22802 -0.83224,-0.27051 -1.83466,-0.60127 -2.2276,-0.73502 -1.00462,-0.34197 -7.45149,-0.50453 -8.72373,-0.21997 -2.41659,0.54051 -3.01266,0.70775 -3.67536,1.03124 -0.38436,0.18763 -0.77733,0.34175 -0.87325,0.34251 -0.37118,0.003 -3.45999,1.88774 -4.67096,2.85025 -2.31932,1.84346 -4.6496,5.17055 -5.76095,8.2253 -1.40877,3.87223 -1.10789,10.639202 0.64748,14.561902 0.75631,1.69013 1.19872,2.40481 2.48887,4.02079 2.13751,2.6773 4.58786,4.4872 7.80664,5.76621 1.52697,0.60675 2.50697,0.85315 5.73601,1.44217 0.90701,0.16545 4.48846,-0.0162 6.20807,-0.31489 z m -216.25127,10.35754 c -3.37738,-0.51746 -7.86881,-1.51366 -9.4067,-2.08641 -0.26197,-0.0975 -1.11928,-0.40145 -1.90516,-0.67533 -2.13117,-0.7427 -5.89047,-2.55448 -6.1743,-2.97568 -0.1838,-0.27276 -0.13466,-0.58795 0.18837,-1.20831 0.48275,-0.92712 0.82919,-1.67485 1.47334,-3.17997 0.58064,-1.3567 1.27606,-2.9131 1.54388,-3.4553 0.12113,-0.24521 0.32696,-0.72171 0.45739,-1.05888 0.28794,-0.74427 0.43431,-0.75464 1.46598,-0.10385 0.98695,0.62257 5.76935,2.83465 6.12837,2.83465 0.14248,0 0.61098,0.14062 1.04111,0.3125 4.98167,1.99061 14.77946,2.64278 19.71452,1.31226 4.46341,-1.20337 6.66803,-3.37752 6.66803,-6.57585 0,-2.33408 -0.98667,-3.70427 -3.50221,-4.8635 -2.10145,-0.96841 -3.91862,-1.4306 -9.11943,-2.31942 -8.3755,-1.43137 -10.38715,-1.88981 -14.76494,-3.364776 -1.41983,-0.47837 -3.77741,-1.60359 -4.21177,-2.010186 -0.19084,-0.17865 -0.43961,-0.32482 -0.55283,-0.32482 -0.25368,0 -2.85602,-2.45419 -2.85602,-2.69344 0,-0.095 -0.13395,-0.3068 -0.29768,-0.47069 -0.39705,-0.39743 -1.02227,-1.6008 -1.54113,-2.96624 -0.34482,-0.90742 -0.42356,-1.84382 -0.42356,-5.0374 0,-2.59291 0.0916,-4.02882 0.27019,-4.23553 0.14859,-0.17201 0.34976,-0.66054 0.44702,-1.08565 0.0972,-0.4251 0.27036,-0.92667 0.38461,-1.11461 0.11428,-0.18793 0.31472,-0.59249 0.44545,-0.899 0.42454,-0.99546 1.73194,-2.71149 2.97747,-3.90809 2.74719,-2.63924 7.88888,-5.14135 12.14535,-5.910305 0.78588,-0.141974 1.9647,-0.359922 2.6196,-0.484334 1.61841,-0.307452 12.00745,-0.292572 13.93143,0.01992 0.85136,0.138295 2.19093,0.352315 2.97681,0.475605 2.61832,0.410764 5.49452,1.171174 8.45411,2.235124 0.72039,0.25897 1.60676,0.57445 1.96971,0.70106 1.11851,0.39016 1.21904,0.88605 0.52285,2.57892 -0.34053,0.82804 -0.78431,1.90679 -0.98616,2.39722 -0.20188,0.49043 -0.51622,1.15796 -0.69856,1.48339 -0.18235,0.32544 -0.33495,0.77686 -0.33912,1.00315 -0.004,0.2263 -0.16491,0.60617 -0.35722,0.84417 -0.19231,0.238 -0.34964,0.61733 -0.34964,0.84296 0,0.22563 -0.14819,0.46347 -0.3293,0.52852 -0.28711,0.10313 -2.68362,-0.68402 -3.72696,-1.22415 -0.20078,-0.10393 -0.7366,-0.26347 -1.19073,-0.35452 -0.45413,-0.0911 -0.93285,-0.2427 -1.06384,-0.33699 -0.13097,-0.0943 -0.61322,-0.2431 -1.07164,-0.33069 -0.45843,-0.0876 -1.31576,-0.29066 -1.90515,-0.45127 -3.34926,-0.91266 -10.56236,-1.22045 -13.81236,-0.5894 -1.90017,0.36896 -4.52475,1.19559 -4.52475,1.4251 0,0.093 -0.14678,0.16918 -0.32619,0.16918 -0.45128,0 -2.18812,1.45948 -2.74751,2.30875 -0.59921,0.90971 -1.20504,2.55288 -1.20943,3.28033 -0.006,1.06429 0.74444,2.63793 1.67381,3.5079 1.91443,1.79205 3.88058,2.38438 13.80209,4.15803 1.11333,0.19902 2.50647,0.47117 3.09589,0.60475 0.5894,0.1336 1.5003,0.31786 2.02422,0.40947 1.5715,0.2748 4.02043,0.88931 4.46197,1.11963 0.22743,0.11865 0.5816,0.21572 0.78704,0.21572 0.20543,0 0.82308,0.18288 1.37256,0.40641 0.54947,0.22352 1.48129,0.59344 2.07069,0.82205 0.58941,0.22861 1.24084,0.5473 1.44762,0.7082 0.20679,0.16091 0.45242,0.29256 0.54587,0.29256 0.26848,0 0.83572,0.451216 2.5222,2.006296 2.66033,2.453056 3.92343,5.468916 3.92132,9.362746 -0.002,2.13909 -0.50442,4.75569 -1.20052,6.24183 -0.57218,1.22158 -1.1524,2.33006 -1.28354,2.45214 -0.0658,0.0613 -0.4325,0.5429 -0.81475,1.07021 -1.21733,1.67929 -4.07976,3.92187 -6.68613,5.23826 -1.15691,0.58431 -2.92528,1.2709 -3.27333,1.2709 -0.17745,0 -0.42446,0.0897 -0.5489,0.19943 -0.28439,0.25071 -1.77019,0.58004 -5.70354,1.26424 -2.65181,0.46126 -3.77905,0.53582 -7.85877,0.51981 -2.8399,-0.0111 -5.58013,-0.14391 -6.7871,-0.32884 z M 139.8,97.665058 v -28.42979 l 6.48943,0.0593 6.48942,0.0593 v 28.31115 28.311152 l -6.48942,0.0593 -6.48943,0.0593 z m 3.16912,-39.543868 c -2.51173,-0.870303 -3.96429,-2.327283 -4.94304,-4.958091 -1.03075,-2.770585 0.37279,-6.587492 3.01852,-8.208828 1.33172,-0.816098 3.88033,-1.570837 5.30437,-1.570837 1.30357,0 3.88375,0.718409 5.04526,1.404774 4.26149,2.518209 4.92461,8.374633 1.32388,11.691917 -0.69869,0.643689 -1.39951,1.170963 -1.55738,1.171716 -0.15786,6.96e-4 -0.60852,0.168411 -1.00146,0.372559 -1.13813,0.59133 -5.58993,0.651254 -7.19015,0.09679 z"
       id="path1" />
  </g>
</svg>
